<?xml version="1.0" encoding="UTF-8"?>
<svg id="Layer_1" xmlns="http://www.w3.org/2000/svg" version="1.1" xmlns:xlink="http://www.w3.org/1999/xlink" viewBox="0 0 187.2 386">
  <!-- Generator: Adobe Illustrator 29.7.1, SVG Export Plug-In . SVG Version: 2.1.1 Build 8)  -->
  <defs>
    <style>
      .st0 {
        fill: url(#linear-gradient2);
      }

      .st1 {
        fill: #fff;
      }

      .st2 {
        fill: url(#linear-gradient1);
      }

      .st3 {
        fill: url(#linear-gradient7);
      }

      .st4 {
        fill: url(#linear-gradient4);
      }

      .st5 {
        fill: url(#linear-gradient5);
      }

      .st6 {
        fill: url(#linear-gradient3);
      }

      .st7 {
        fill: url(#linear-gradient6);
      }

      .st8 {
        fill: url(#linear-gradient);
      }
    </style>
    <linearGradient id="linear-gradient" x1="-794.4" y1="-237.4" x2="-767.7" y2="-237.4" gradientTransform="translate(785 -282.7) rotate(-18.8) scale(1 -1)" gradientUnits="userSpaceOnUse">
      <stop offset="0" stop-color="#be702d"/>
      <stop offset=".5" stop-color="#f59120"/>
      <stop offset=".6" stop-color="#f59525"/>
      <stop offset=".9" stop-color="#f7a234"/>
      <stop offset="1" stop-color="#f9ae42"/>
    </linearGradient>
    <linearGradient id="linear-gradient1" x1="-743.2" y1="-164.7" x2="-874.1" y2="-89.4" gradientTransform="translate(785 -282.7) rotate(-18.8) scale(1 -1)" gradientUnits="userSpaceOnUse">
      <stop offset=".2" stop-color="#be702d"/>
      <stop offset=".3" stop-color="#c2722b"/>
      <stop offset=".5" stop-color="#d17b28"/>
      <stop offset=".7" stop-color="#e88922"/>
      <stop offset=".7" stop-color="#f59120"/>
    </linearGradient>
    <linearGradient id="linear-gradient2" x1="-779.9" y1="-146.8" x2="-641.4" y2="-141" gradientTransform="translate(785 -282.7) rotate(-18.8) scale(1 -1)" gradientUnits="userSpaceOnUse">
      <stop offset="0" stop-color="#be702d"/>
      <stop offset=".5" stop-color="#f59120"/>
    </linearGradient>
    <linearGradient id="linear-gradient3" x1="-800.2" y1="-168" x2="-731.2" y2="-104.7" gradientTransform="translate(785 -282.7) rotate(-18.8) scale(1 -1)" gradientUnits="userSpaceOnUse">
      <stop offset="0" stop-color="#f59120"/>
      <stop offset=".5" stop-color="#f69e30"/>
      <stop offset=".9" stop-color="#f9ae42"/>
    </linearGradient>
    <linearGradient id="linear-gradient4" x1="-783.2" y1="-233.4" x2="-803.3" y2="-49.5" gradientTransform="translate(785 -282.7) rotate(-18.8) scale(1 -1)" gradientUnits="userSpaceOnUse">
      <stop offset="0" stop-color="#be702d"/>
      <stop offset=".5" stop-color="#f59120"/>
      <stop offset=".6" stop-color="#f59525"/>
      <stop offset=".9" stop-color="#f7a234"/>
      <stop offset="1" stop-color="#f9ae42"/>
    </linearGradient>
    <linearGradient id="linear-gradient5" x1="-821.3" y1="-187.2" x2="-729.6" y2="-103.1" gradientTransform="translate(785 -282.7) rotate(-18.8) scale(1 -1)" gradientUnits="userSpaceOnUse">
      <stop offset="0" stop-color="#f9ae42"/>
      <stop offset=".5" stop-color="#f69e30"/>
      <stop offset="1" stop-color="#f59120"/>
    </linearGradient>
    <linearGradient id="linear-gradient6" x1="-783.5" y1="-233.2" x2="-802.1" y2="-63.1" gradientTransform="translate(785 -282.7) rotate(-18.8) scale(1 -1)" gradientUnits="userSpaceOnUse">
      <stop offset=".2" stop-color="#f59120"/>
      <stop offset=".5" stop-color="#f59525"/>
      <stop offset=".8" stop-color="#f7a234"/>
      <stop offset="1" stop-color="#f9ae42"/>
    </linearGradient>
    <linearGradient id="linear-gradient7" x1="-743.3" y1="-169.8" x2="-846" y2="-110.8" gradientTransform="translate(785 -282.7) rotate(-18.8) scale(1 -1)" gradientUnits="userSpaceOnUse">
      <stop offset=".2" stop-color="#be702d"/>
      <stop offset=".3" stop-color="#c2722b"/>
      <stop offset=".5" stop-color="#d17b28"/>
      <stop offset=".7" stop-color="#e88922"/>
      <stop offset=".7" stop-color="#f59120"/>
    </linearGradient>
  </defs>
  <path class="st1" d="M114.4,163.5c1.5,7.1,3.8,14.1,6.4,20.9s5.7,13.5,8.8,20.1c3.1,6.6,6.3,13.2,9.2,19.9,3,6.7,5.6,13.6,7.7,20.6.3.9.5,1.8.8,2.6l.6,2.7c.4,1.8.9,3.6,1.2,5.4l.5,2.7c.2.9.3,1.8.4,2.7.3,1.8.5,3.6,1.2,5.3.6,1.7,1.8,3.2,3.3,4.1,1.5,1,3.3,1.4,5.1,1.6,3.6.4,7.3,0,11,.7,7.3,1.3,13.6,6.8,15.8,13.8,2.2,7,0,15.2-5.2,20.3,5.3-5.1,7.3-13.3,5.1-20.2-2.2-7-8.5-12.4-15.7-13.6s-7.3-.2-10.9-.6c-1.8-.2-3.7-.7-5.3-1.6-1.6-1-2.8-2.5-3.5-4.2s-1-3.6-1.3-5.4c0-.9-.3-1.8-.5-2.7l-.5-2.7c-.3-1.8-.8-3.6-1.2-5.3l-.7-2.7-.8-2.6c-2.1-7-4.8-13.8-7.8-20.5s-6.2-13.3-9.3-19.9c-3.1-6.6-6.2-13.3-8.9-20.1-2.7-6.8-5-13.8-6.6-21l.9-.2h.2Z"/>
  <polygon class="st8" points="122 187.6 111.8 203.6 137.1 194.9 122 187.6"/>
  <path class="st2" d="M149.1,66.8c11.5,33.8,6.9,109.9-26.9,121.4-33.8,11.5-83.9-45.9-95.4-79.7-11.5-33.8,6.5-70.5,40.3-82s70.5,6.5,82,40.3h0Z"/>
  <path class="st0" d="M149.1,66.8c-11.5-33.8-48.2-51.8-82-40.3l55.1,161.7c33.8-11.5,38.4-87.6,26.9-121.4h0Z"/>
  <path class="st6" d="M123.6,75.5c-11.5-33.8-36.8-55.7-56.4-49l55.1,161.7c19.6-6.7,12.8-78.9,1.3-112.7Z"/>
  <path class="st4" d="M52.4,99.8c-11.5-33.8-4.9-66.6,14.7-73.3l55.1,161.7c-19.6,6.7-58.3-54.6-69.8-88.4h0Z"/>
  <path class="st5" d="M122.2,188.2c1-.4,1.9-.9,2.7-1.5.8-.6,1.5-1.4,2.2-2.2,1.3-1.6,2.2-3.5,3-5.4,1.5-3.8,2.4-7.9,3-12,1.2-8.2,1.3-16.5,1-24.8-.6-16.6-2.8-33.1-6.4-49.3-1.8-8.1-4-16.1-7.1-23.8-3.1-7.7-7.1-15-12-21.6-2.5-3.3-5.1-6.5-8.1-9.4-2.9-2.9-6.2-5.5-9.7-7.6-1.8-1.1-3.6-2.1-5.5-2.8l-.7-.3-.7-.3c-.5-.2-1-.4-1.5-.5l-1.5-.4c-.5-.2-1-.2-1.5-.3-4-.9-8.3-.7-12.3.5,2-.7,4-1.1,6.1-1.2,2.1-.2,4.2,0,6.2.4.5,0,1,.2,1.5.3l1.5.4c.5,0,1,.3,1.5.5l.7.3.7.3c2,.7,3.8,1.7,5.6,2.8,3.6,2.1,6.9,4.7,9.9,7.6s5.8,6,8.3,9.4c5.1,6.7,9.1,14,12.3,21.7,3.2,7.7,5.4,15.8,7.3,23.9,1.8,8.1,3.2,16.3,4.2,24.6,1,8.3,1.7,16.6,1.9,24.9.2,8.3,0,16.7-1.4,24.9-.7,4.1-1.6,8.2-3.3,12-.8,1.9-1.8,3.8-3.2,5.4-.7.8-1.4,1.5-2.3,2.2-.8.6-1.8,1.1-2.8,1.4h.4Z"/>
  <path class="st7" d="M122.2,188.2c-1,.3-2,.5-3.1.5s-2.1,0-3.1-.3c-2-.5-4-1.3-5.8-2.3-3.6-2.1-6.9-4.7-9.9-7.5-6.1-5.7-11.4-12.2-16.3-18.9-4.9-6.7-9.4-13.7-13.7-20.9-4.2-7.2-8.1-14.5-11.7-22.1-3.5-7.6-6.6-15.3-8.8-23.4s-3.5-16.4-3.6-24.7c0-4.2.2-8.4.9-12.5.6-4.1,1.7-8.2,3.2-12.1.8-1.9,1.7-3.8,2.8-5.6l.4-.7.4-.7c.3-.4.6-.9.9-1.3l1-1.2c.3-.4.7-.8,1-1.2,1.4-1.5,2.9-3,4.7-4.1,1.7-1.2,3.6-2.1,5.6-2.7-3.9,1.4-7.4,3.9-10,7.1-.3.4-.7.8-1,1.2l-.9,1.2c-.3.4-.6.9-.8,1.3l-.4.7-.4.7c-1,1.8-1.9,3.7-2.6,5.6-1.5,3.9-2.5,7.9-3,12-.6,4.1-.8,8.2-.7,12.4.2,8.3,1.5,16.5,3.7,24.5s5.4,15.7,8.9,23.2c7,15,15.4,29.4,25,42.9,4.8,6.7,10,13.2,16,19s6.1,5.6,9.7,7.7c1.8,1.1,3.7,1.9,5.7,2.4,1,.2,2,.4,3.1.4s2.1,0,3.1-.5h-.3Z"/>
  <path class="st3" d="M122.2,188.2c-2.3.8-4.7,1.3-7.2,1.5-2.4.2-4.9,0-7.3-.2-4.9-.7-9.6-2.2-14-4.3-4.5-2-8.7-4.5-12.7-7.3s-7.9-5.8-11.6-9c-7.4-6.5-14.1-13.7-20.2-21.3-6.1-7.7-11.7-15.8-16.4-24.4-2.3-4.3-4.4-8.8-6.1-13.4-1.6-4.6-2.8-9.5-3.4-14.4-1.1-9.8,0-19.8,3.3-29.1,1.7-4.6,3.8-9.1,6.4-13.2,2.6-4.1,5.7-8,9.2-11.4,7-6.9,15.6-12.1,24.9-15.1-9.2,3.3-17.7,8.6-24.5,15.5-3.4,3.5-6.5,7.3-9,11.4-2.6,4.1-4.6,8.6-6.2,13.1-3.2,9.2-4.2,19.1-3,28.7.6,4.8,1.8,9.5,3.4,14.1,1.7,4.6,3.7,9,6.1,13.2,4.6,8.6,10.1,16.6,16.2,24.3,6.1,7.6,12.7,14.8,20,21.3,3.6,3.2,7.4,6.3,11.4,9.1,4,2.8,8.2,5.3,12.6,7.4,4.4,2.1,9,3.7,13.8,4.5,4.8.7,9.8.6,14.5-1h-.2Z"/>
</svg>