<?xml version="1.0" encoding="UTF-8"?>
<svg id="Layer_1" xmlns="http://www.w3.org/2000/svg" version="1.1" xmlns:xlink="http://www.w3.org/1999/xlink" viewBox="0 0 211.9 550">
  <!-- Generator: Adobe Illustrator 29.7.1, SVG Export Plug-In . SVG Version: 2.1.1 Build 8)  -->
  <defs>
    <style>
      .st0 {
        fill: url(#linear-gradient2);
      }

      .st1 {
        fill: #fff;
      }

      .st2 {
        fill: url(#linear-gradient1);
      }

      .st3 {
        fill: url(#linear-gradient7);
      }

      .st4 {
        fill: url(#linear-gradient4);
      }

      .st5 {
        fill: url(#linear-gradient5);
      }

      .st6 {
        fill: url(#linear-gradient3);
      }

      .st7 {
        fill: url(#linear-gradient6);
      }

      .st8 {
        fill: url(#linear-gradient);
      }
    </style>
    <linearGradient id="linear-gradient" x1="100.3" y1="523.5" x2="134" y2="523.5" gradientTransform="translate(0 773.8) scale(1 -1)" gradientUnits="userSpaceOnUse">
      <stop offset="0" stop-color="#009247"/>
      <stop offset="0" stop-color="#059346"/>
      <stop offset=".3" stop-color="#159945"/>
      <stop offset=".5" stop-color="#2fa344"/>
      <stop offset=".7" stop-color="#53b042"/>
      <stop offset="1" stop-color="#81c040"/>
      <stop offset="1" stop-color="#8ac440"/>
    </linearGradient>
    <linearGradient id="linear-gradient1" x1="176.6" y1="591.1" x2="-14.4" y2="771.9" gradientTransform="translate(0 773.8) scale(1 -1)" gradientUnits="userSpaceOnUse">
      <stop offset="0" stop-color="#007641"/>
      <stop offset=".6" stop-color="#36b24a"/>
      <stop offset=".7" stop-color="#3bb349"/>
      <stop offset=".8" stop-color="#4ab647"/>
      <stop offset=".9" stop-color="#63bb44"/>
      <stop offset="1" stop-color="#86c340"/>
      <stop offset="1" stop-color="#8ac440"/>
    </linearGradient>
    <linearGradient id="linear-gradient2" x1="100.8" y1="628.2" x2="241.7" y2="690.3" gradientTransform="translate(0 773.8) scale(1 -1)" gradientUnits="userSpaceOnUse">
      <stop offset="0" stop-color="#009247"/>
      <stop offset="0" stop-color="#059346"/>
      <stop offset=".3" stop-color="#159945"/>
      <stop offset=".5" stop-color="#2fa344"/>
      <stop offset=".7" stop-color="#53b042"/>
      <stop offset="1" stop-color="#81c040"/>
      <stop offset="1" stop-color="#8ac440"/>
    </linearGradient>
    <linearGradient id="linear-gradient3" x1="96.1" y1="576.6" x2="210.8" y2="818.2" gradientTransform="translate(0 773.8) scale(1 -1)" gradientUnits="userSpaceOnUse">
      <stop offset="0" stop-color="#36b24a"/>
      <stop offset=".2" stop-color="#46b548"/>
      <stop offset=".7" stop-color="#70be42"/>
      <stop offset=".9" stop-color="#8ac440"/>
    </linearGradient>
    <linearGradient id="linear-gradient4" x1="144.6" y1="569.7" x2="53.1" y2="766.4" gradientTransform="translate(0 773.8) scale(1 -1)" gradientUnits="userSpaceOnUse">
      <stop offset="0" stop-color="#084"/>
      <stop offset=".5" stop-color="#36b24a"/>
      <stop offset=".6" stop-color="#3bb349"/>
      <stop offset=".7" stop-color="#4ab647"/>
      <stop offset=".8" stop-color="#63bb44"/>
      <stop offset="1" stop-color="#86c340"/>
      <stop offset="1" stop-color="#8ac440"/>
    </linearGradient>
    <linearGradient id="linear-gradient5" x1="82.3" y1="546.9" x2="167.6" y2="726.6" gradientTransform="translate(0 773.8) scale(1 -1)" gradientUnits="userSpaceOnUse">
      <stop offset="0" stop-color="#36b24a"/>
      <stop offset=".2" stop-color="#46b548"/>
      <stop offset=".7" stop-color="#70be42"/>
      <stop offset=".9" stop-color="#8ac440"/>
    </linearGradient>
    <linearGradient id="linear-gradient6" x1="155.4" y1="546.3" x2="71.2" y2="727.2" gradientTransform="translate(0 773.8) scale(1 -1)" gradientUnits="userSpaceOnUse">
      <stop offset="0" stop-color="#084"/>
      <stop offset=".5" stop-color="#36b24a"/>
      <stop offset=".6" stop-color="#3bb349"/>
      <stop offset=".7" stop-color="#4ab647"/>
      <stop offset=".8" stop-color="#63bb44"/>
      <stop offset="1" stop-color="#86c340"/>
      <stop offset="1" stop-color="#8ac440"/>
    </linearGradient>
    <linearGradient id="linear-gradient7" x1="169.4" y1="582.5" x2="42.3" y2="702.7" gradientTransform="translate(0 773.8) scale(1 -1)" gradientUnits="userSpaceOnUse">
      <stop offset="0" stop-color="#007641"/>
      <stop offset=".6" stop-color="#36b24a"/>
      <stop offset=".7" stop-color="#3bb349"/>
      <stop offset=".8" stop-color="#4ab647"/>
      <stop offset=".9" stop-color="#63bb44"/>
      <stop offset="1" stop-color="#86c340"/>
      <stop offset="1" stop-color="#8ac440"/>
    </linearGradient>
  </defs>
  <path class="st1" d="M123.6,207.5c-2.2,6.6-3.8,13.4-4.8,20.3-1,6.9-1.4,13.9-1.2,20.8.2,7,1,13.9,2.4,20.7s3.5,13.5,5.8,20c4.7,13.1,10.6,25.8,15.5,38.9,2.4,6.5,4.6,13.2,6.2,20,.8,3.4,1.4,6.9,1.8,10.3.4,3.5.6,7,.6,10.5s-.4,7-1,10.4c-.6,3.5-1.5,6.8-2.6,10.2-2.2,6.6-5.1,13-8,19.4-2.9,6.3-5.9,12.7-8.2,19.2-2.3,6.6-4,13.5-3.6,20.4.2,3.5.9,6.9,2.1,10.2,1.2,3.3,2.9,6.3,4.8,9.2,1.9,2.9,3.9,5.8,5.5,8.9s2.9,6.4,3.5,9.8c.7,3.4.9,6.9.6,10.4-.3,3.5-1,6.9-2.2,10.2-2.3,6.6-6.5,12.5-11.9,16.9,5.5-4.3,9.7-10.3,11.9-16.9,1.1-3.3,1.9-6.7,2.2-10.2.2-3.5,0-7-.6-10.4s-1.9-6.7-3.6-9.8c-1.7-3.1-3.7-5.9-5.6-8.9-1.9-2.9-3.7-6-4.9-9.3s-1.9-6.7-2.1-10.2c-.3-7,1.3-14,3.6-20.5,2.3-6.6,5.3-12.9,8.2-19.3,2.9-6.3,5.8-12.7,7.9-19.3,1.1-3.3,2-6.7,2.5-10.1.6-3.4.9-6.9.9-10.4s-.2-7-.6-10.4c-.4-3.5-1.1-6.9-1.9-10.3-1.6-6.8-3.8-13.4-6.3-19.9-4.9-13-10.8-25.7-15.6-38.9-2.4-6.6-4.4-13.3-5.9-20.1-1.4-6.9-2.2-13.8-2.5-20.8-.2-7,.2-14,1.1-20.9,1-6.9,2.6-13.8,4.8-20.4l.9.3h.3Z"/>
  <polygon class="st8" points="119 242.8 100.3 257.8 134 257.8 119 242.8"/>
  <path class="st2" d="M200.6,109.6c0,45.1-36.5,134.1-81.6,134.1S37.4,154.7,37.4,109.6,73.9,28,119,28s81.6,36.5,81.6,81.6h0Z"/>
  <path class="st0" d="M200.6,109.6c0-45.1-36.5-81.6-81.6-81.6v215.7c45.1,0,81.6-89,81.6-134.1h0Z"/>
  <path class="st6" d="M166.5,109.6c0-45.1-21.2-81.6-47.4-81.6v215.7c26.2,0,47.4-89,47.4-134.1h0Z"/>
  <path class="st4" d="M71.6,109.6c0-45.1,21.2-81.6,47.4-81.6v215.7c-26.2,0-47.4-89-47.4-134.1h0Z"/>
  <path class="st5" d="M119,243.7c2.6,0,5.2-1,7.4-2.4s4.1-3.2,5.8-5.2c3.4-4,6.1-8.5,8.5-13.1,4.8-9.3,8.3-19.2,11.4-29.2,6-20.1,10.2-40.7,12.4-61.5,1.1-10.4,1.8-20.9,1.2-31.3-.6-10.4-2.4-20.8-5.6-30.7-3.2-9.9-7.7-19.5-14.4-27.6-1.7-2-3.4-3.9-5.4-5.6-1.9-1.7-4-3.3-6.3-4.6-4.5-2.7-9.6-4.2-14.9-4.3,5.2,0,10.5,1.4,15.1,4s4.5,2.8,6.5,4.5,3.9,3.6,5.6,5.6c6.9,8.1,11.5,17.7,14.9,27.7,3.3,10,5.1,20.5,5.8,31s0,21.1-1,31.5c-1.2,10.4-2.8,20.8-5,31.1-2.1,10.3-4.7,20.5-7.8,30.5-3.2,10-6.9,19.9-11.8,29.2-2.5,4.6-5.3,9.1-8.8,13.1-1.7,2-3.7,3.7-6,5.2-2.2,1.4-4.8,2.3-7.4,2.3l-.2-.2Z"/>
  <path class="st7" d="M119,243.7c-2.6,0-5.2-.9-7.4-2.3-2.2-1.4-4.2-3.2-6-5.2-3.5-3.9-6.3-8.4-8.8-13.1-4.9-9.3-8.6-19.2-11.8-29.2s-5.7-20.2-7.8-30.5-3.8-20.7-5-31.1c-1.1-10.4-1.7-21-1-31.5s2.5-21,5.8-31,8-19.6,14.9-27.7c1.7-2,3.6-3.9,5.6-5.6,2-1.7,4.1-3.3,6.5-4.5,4.6-2.6,9.8-4,15.1-4-5.2,0-10.4,1.6-14.9,4.3-2.3,1.3-4.4,2.9-6.3,4.6-2,1.7-3.7,3.6-5.4,5.6-6.7,8.1-11.2,17.7-14.4,27.6-3.1,10-5,20.3-5.6,30.7s0,20.9,1.2,31.3c2.3,20.8,6.4,41.4,12.4,61.5,3,10,6.6,19.9,11.4,29.2,2.4,4.6,5.1,9.2,8.5,13.1,1.7,2,3.6,3.8,5.8,5.2s4.7,2.4,7.4,2.4l-.2.2Z"/>
  <path class="st3" d="M119,243.7c-6.2,0-12.3-1.7-17.8-4.5s-10.5-6.6-15-10.8-8.6-9-12.2-13.9c-3.7-5-7.1-10.2-10.2-15.5-3.1-5.4-5.9-10.9-8.5-16.5s-4.9-11.4-7-17.2-4-11.7-5.6-17.7-3-12-4-18.1-1.7-12.3-1.8-18.5c0-6.2.5-12.4,1.8-18.5,2.6-12.1,8-23.7,15.7-33.4,7.7-9.8,17.6-17.7,28.8-23.1,11.2-5.3,23.6-8,35.9-7.9-12.3,0-24.6,3-35.6,8.5s-20.8,13.4-28.2,23.1c-7.5,9.7-12.8,21.1-15.3,33-1.3,6-1.8,12.1-1.7,18.2,0,6.1.8,12.2,1.8,18.3s2.4,12.1,4,18,3.4,11.8,5.5,17.6,4.4,11.5,6.9,17.1c2.6,5.6,5.3,11.1,8.3,16.5,3,5.3,6.3,10.6,10,15.5,3.6,5,7.6,9.7,12,14s9.3,8.1,14.7,11,11.5,4.7,17.7,4.8h-.2Z"/>
</svg>