<svg width="102" height="98" viewBox="0 0 102 98" fill="none" xmlns="http://www.w3.org/2000/svg">
<path d="M95.3091 43.0953C92.7741 64.3895 90.2391 89.2326 49.1718 91.2606C27.8777 86.1906 3.5415 65.4035 3.5415 45.6303C3.5415 25.8572 23.9709 0 49.1718 0C76.043 7.60505 95.3091 17.8944 95.3091 43.0953Z" fill="#F6E8EB"/>
<path d="M31.9342 5.13717C30.4132 5.13717 15.203 15.2772 5.56998 39.1064V40.6272C7.93599 38.5992 14.3918 32.0082 21.2871 21.8681C29.9061 9.193 33.724 9.46902 40.5532 7.67199C50.1863 5.13717 52.2143 7.67199 59.8194 12.235C72.5465 19.8713 68.4384 14.263 86.1835 34.5432C103.929 54.8233 79.5925 15.784 77.0575 14.263C74.5225 12.742 55.7633 3.61616 50.1863 3.10916C44.6092 2.60215 33.4552 5.13717 31.9342 5.13717Z" fill="white" fill-opacity="0.75"/>
<path d="M53.0065 12.3291C52.1908 11.8581 40.8937 12.5867 28.349 22.3837L27.8781 23.1993C29.775 22.8443 35.2781 21.3084 42.1159 18.0053C50.663 13.8763 52.6251 15.2065 56.8441 16.3573C62.7953 17.9806 63.0981 19.968 65.7638 24.77C70.225 32.8063 69.7584 28.5265 72.9957 44.8974C76.2331 61.2684 75.2694 32.7959 74.3808 31.1952C73.4922 29.5946 66.2573 18.8918 63.4232 16.893C60.5892 14.8942 53.8222 12.8 53.0065 12.3291Z" fill="white" fill-opacity="0.75"/>
<path d="M52.4227 22.7822C51.7576 22.3982 42.5464 22.9923 32.3178 30.9804L31.9339 31.6455C33.4805 31.356 37.9676 30.1037 43.5429 27.4104C50.5119 24.0438 52.1117 25.1283 55.5518 26.0667C60.4041 27.3903 60.651 29.0108 62.8246 32.9261C66.4621 39.4786 66.0816 35.989 68.7212 49.3373C71.3608 62.6857 70.5751 39.4702 69.8506 38.165C69.1261 36.8599 63.2269 28.1332 60.9161 26.5035C58.6054 24.8737 53.0878 23.1662 52.4227 22.7822Z" fill="white" fill-opacity="0.75"/>
<path d="M9.10652 46.4131C8.7107 45.1457 13.2015 29.8335 30.5497 15.6058L31.8169 15.21C30.7428 17.7092 26.931 24.8036 20.2764 33.1877C11.9582 43.6678 13.1817 46.7771 13.4616 52.935C13.8564 61.6212 16.4962 62.6514 22.2773 67.8006C31.9521 76.418 26.2101 74.4545 47.7259 83.9626C69.2417 93.4707 30.3801 83.3525 28.4531 81.6361C26.526 79.9197 14.0403 66.664 12.1666 62.149C10.2928 57.634 9.50234 47.6804 9.10652 46.4131Z" fill="white" fill-opacity="0.75"/>
<path d="M33.1232 64.2151C32.3319 63.7402 27.5849 53.7152 30.0139 38.3097L30.4888 37.5185C31.0865 39.3124 32.3872 44.7574 32.8082 52.186C33.3346 61.4718 35.407 62.5203 38.3989 65.5877C42.6192 69.9145 44.4658 69.229 49.8473 69.2297C58.8533 69.2309 54.9647 70.8659 70.5295 65.8559C86.0943 60.8459 61.2428 73.5575 59.4489 73.5573C57.6551 73.557 45.0458 72.4473 41.9859 70.9696C38.9261 69.4919 33.9146 64.6901 33.1232 64.2151Z" fill="white" fill-opacity="0.75"/>
<path d="M59.6291 34.1764C60.0694 34.3062 63.6077 38.5398 64.3632 46.2607L64.2334 46.701C63.7214 45.9119 62.4148 43.4528 61.2838 39.9288C59.8701 35.5237 58.7413 35.2778 56.9174 34.1747C54.3448 32.6189 53.5414 33.1797 50.9503 33.8518C46.6139 34.9765 48.2819 33.7034 41.4138 38.0605C34.5458 42.4176 44.9228 33.1919 45.7865 32.9679C46.6502 32.7439 52.86 31.7026 54.5179 32.0317C56.1758 32.3608 59.1887 34.0466 59.6291 34.1764Z" fill="white" fill-opacity="0.75"/>
<path d="M21.4235 35.5773C21.4795 34.5237 29.0635 24.3611 45.9246 18.5658L46.978 18.6218C45.4861 20.186 40.6828 24.4152 33.4049 28.8182C24.3076 34.3218 24.3582 36.9766 22.8619 41.641C20.7514 48.2204 22.4326 49.7185 25.3133 55.1545C30.1343 64.2518 26.4007 61.1996 39.7953 74.2383C53.1898 87.277 27.0436 68.982 26.0834 67.17C25.1231 65.358 19.4924 52.0276 19.3466 48.1457C19.2008 44.2639 21.3675 36.6309 21.4235 35.5773Z" fill="white" fill-opacity="0.75"/>
<path d="M35.04 37.786C35.0718 37.1881 39.3759 31.4205 48.9451 28.1315L49.543 28.1633C48.6963 29.051 45.9702 31.4512 41.8398 33.95C36.6768 37.0735 36.7055 38.5802 35.8564 41.2274C34.6585 44.9614 35.6127 45.8116 37.2476 48.8967C39.9836 54.0597 37.8647 52.3275 45.4665 59.7274C53.0684 67.1273 38.2296 56.7442 37.6846 55.7159C37.1396 54.6875 33.944 47.1221 33.8613 44.919C33.7785 42.716 35.0082 38.384 35.04 37.786Z" fill="white" fill-opacity="0.75"/>
<path d="M76.507 80.0542C75.9132 81.0019 63.6577 86.5203 45.0501 83.22L44.1025 82.6263C46.2897 81.9438 52.9166 80.4944 61.9262 80.1566C73.1883 79.7345 74.5067 77.248 78.2923 73.6944C83.6322 68.682 82.8445 66.4289 82.9703 59.9091C83.1807 48.9983 85.0713 53.7472 79.3628 34.774C73.6542 15.8009 88.4779 46.2038 88.436 48.377C88.3941 50.5503 86.757 65.8009 84.8957 69.4736C83.0345 73.1464 77.1007 79.1065 76.507 80.0542Z" fill="white" fill-opacity="0.75"/>
<path d="M62.2072 64.7664C61.894 65.2663 55.43 68.1769 45.6158 66.4362L45.116 66.123C46.2696 65.7631 49.7648 64.9986 54.5168 64.8205C60.4568 64.5978 61.1521 63.2864 63.1488 61.4121C65.9652 58.7683 65.5498 57.58 65.6161 54.1413C65.7271 48.3865 66.7243 50.8913 63.7134 40.8842C60.7025 30.8771 68.521 46.9126 68.4989 48.0589C68.4768 49.2051 67.6133 57.2488 66.6317 59.1859C65.65 61.123 62.5203 64.2666 62.2072 64.7664Z" fill="white" fill-opacity="0.75"/>
<path d="M73.3199 77.416C72.8655 78.1413 61.9342 81.3919 44.0462 76.5806L43.0883 75.9804C45.0726 75.6526 51.153 75.1756 59.6002 75.8897C70.1592 76.7823 71.1259 74.853 74.2981 72.3059C78.7727 68.713 77.7818 66.7456 77.1795 61.3185C76.1716 52.2362 78.477 56.4084 71.0038 39.9434C63.5305 23.4783 80.8512 50.4896 81.0519 52.2987C81.2527 54.1077 81.3969 66.6541 80.0501 69.5134C78.7033 72.3728 73.7743 76.6908 73.3199 77.416Z" fill="white" fill-opacity="0.75"/>
<path d="M29.5 28.4225V68.2062" stroke="black" stroke-width="2.82151" stroke-linecap="round"/>
<path d="M40.8257 28.9495C41.6449 31.1729 38.281 33.2134 39.2449 35.5947C39.6197 36.5206 40.6469 36.7262 40.8403 37.7903C41.0422 38.9004 41.1219 39.9251 41.0892 41.069C41.0234 43.3714 37.4769 44.3781 39.4498 46.9824C40.4512 48.3042 41.4395 50.2199 40.7964 51.9883C40.5246 52.7359 39.8172 53.0712 39.7718 53.9789C39.7336 54.7438 39.3798 55.4456 39.523 56.2331C39.8654 58.116 42.5219 58.4094 41.4697 60.8145C40.9675 61.9624 38.321 63.4764 39.6401 65.0592C40.927 66.6035 42.1431 67.0762 42.1431 69.2601" stroke="black" stroke-width="2.82151" stroke-linecap="round"/>
<path d="M52.6824 28.1591C51.969 30.0316 52.3658 32.7296 52.4189 34.7458C52.4765 36.9339 54.3858 38.866 56.5758 38.9613C57.8 39.0145 58.5072 38.4984 57.8932 37.117C57.4958 36.2228 56.1919 36.5264 55.4634 36.9121C51.7429 38.8818 49.7665 45.7781 52.3603 49.2365C53.5037 50.761 56.6816 52.1385 58.625 51.4906C60.2353 50.9539 60.4536 48.3562 59.0202 47.5679C58.2891 47.1657 55.4105 47.0326 54.6584 47.5532C52.9863 48.7108 52.3658 50.0165 51.7602 51.9005C50.9245 54.5004 50.9667 57.9972 52.4335 60.3022C53.2209 61.5395 55.2375 62.5578 56.6197 61.5902C57.3194 61.1005 59.3115 58.6926 58.0249 58.0773C56.0537 57.1346 53.1288 57.3597 51.7602 59.1605C50.3354 61.0353 50.1437 63.3685 50.3258 65.6447C50.4416 67.092 51.4544 68.4745 51.892 69.787" stroke="black" stroke-width="2.82151" stroke-linecap="round"/>
<path d="M69.9288 68.8909C69.4442 68.5678 68.9789 68.2319 68.4923 67.9137C67.9961 67.5893 68.593 67.3338 68.9349 67.1787C69.9138 66.7347 71.8938 66.2308 70.8142 64.7733C70.5012 64.3508 70.1529 64.0228 69.6783 63.7877C69.0876 63.4952 68.1948 63.3094 67.7489 62.7855C66.9387 61.8334 68.745 61.5768 69.3442 61.399C70.0646 61.1852 71.1718 61.0954 71.6243 60.3968C71.9932 59.8273 71.909 58.9667 71.2735 58.7096C70.5334 58.4102 69.7587 58.2004 68.985 58.008C68.6327 57.9205 68.0248 57.9178 67.7322 57.674C67.0849 57.1345 66.674 56.5012 67.6737 56.0536C68.7098 55.5899 69.73 55.7952 70.8309 55.778C71.6353 55.7655 72.9772 55.4065 72.9356 54.3665C72.8943 53.3339 71.4378 52.5743 70.6221 52.22C69.9809 51.9415 68.9913 51.9973 68.4588 51.4934C68.0051 51.0639 67.7253 50.3207 68.4839 50.0735C69.384 49.7802 70.6824 49.9858 71.357 49.1965C71.6779 48.8212 71.7562 48.1698 71.7914 47.6931C71.8238 47.2524 71.5611 47.1038 71.2067 46.9247C70.1074 46.3693 68.9147 46.1286 67.8241 45.555C67.7407 45.5111 66.8553 45.0237 66.9889 44.8367C67.0746 44.7167 67.4085 44.6515 67.5401 44.6112C68.4389 44.3358 69.3901 44.3487 70.2629 43.9931C70.975 43.703 71.6285 43.2791 71.7162 42.4313C71.8092 41.5324 69.704 40.9992 69.1103 40.7024C68.7269 40.5107 67.4561 39.7519 68.1582 39.1823C68.8749 38.6008 70.0474 38.7479 70.8893 38.5308C71.1906 38.4532 71.6348 38.3152 71.7329 37.9796C71.8254 37.6632 71.8769 37.1536 71.641 36.8855C71.3716 36.5793 70.7955 36.3966 70.43 36.2841C69.4869 35.9939 68.4909 35.9287 67.5234 35.7579C67.1111 35.6852 66.8731 35.5871 66.6214 35.2401C66.5291 35.1128 66.1569 34.6363 66.4293 34.4967C67.3255 34.0377 68.5044 34.0162 69.4611 33.7451C70.4092 33.4763 71.4822 32.8422 71.1399 31.6821C70.947 31.0284 70.3809 30.8477 69.8119 30.613C69.0431 30.2959 68.2779 29.888 67.5652 29.4604C66.9064 29.0651 66.1093 27.7732 67.0807 27.2053C67.5908 26.9072 68.3806 27.0216 68.9516 27.0216" stroke="black" stroke-width="2.82151" stroke-linecap="round"/>
</svg>
