<svg width="13" height="13" viewBox="0 0 13 13" fill="none" xmlns="http://www.w3.org/2000/svg">
<path d="M5.92042 0.421089C6.10285 -0.140365 6.89715 -0.140363 7.07958 0.421091L8.19619 3.85767C8.27778 4.10876 8.51176 4.27876 8.77578 4.27876H12.3892C12.9796 4.27876 13.225 5.03419 12.7474 5.38119L9.82408 7.50511C9.61049 7.6603 9.52112 7.93536 9.6027 8.18645L10.7193 11.623C10.9017 12.1845 10.2591 12.6514 9.78153 12.3044L6.8582 10.1804C6.64461 10.0253 6.35539 10.0253 6.1418 10.1804L3.21847 12.3044C2.74087 12.6514 2.09826 12.1845 2.28069 11.623L3.3973 8.18645C3.47888 7.93536 3.38951 7.6603 3.17592 7.50511L0.252588 5.38119C-0.225013 5.03419 0.0204428 4.27876 0.61079 4.27876H4.22423C4.48824 4.27876 4.72222 4.10876 4.80381 3.85767L5.92042 0.421089Z" fill="#FAB73B"/>
</svg>
