<svg width="13" height="13" viewBox="0 0 13 13" fill="none" xmlns="http://www.w3.org/2000/svg">
<path d="M5.92042 0.420879C6.10285 -0.140575 6.89715 -0.140573 7.07958 0.420881L8.19619 3.85746C8.27778 4.10855 8.51176 4.27855 8.77578 4.27855H12.3892C12.9796 4.27855 13.225 5.03398 12.7474 5.38098L9.82408 7.5049C9.61049 7.66009 9.52112 7.93515 9.6027 8.18624L10.7193 11.6228C10.9017 12.1843 10.2591 12.6512 9.78153 12.3042L6.8582 10.1802C6.64461 10.0251 6.35539 10.0251 6.1418 10.1802L3.21847 12.3042C2.74087 12.6512 2.09826 12.1843 2.28069 11.6228L3.3973 8.18624C3.47888 7.93515 3.38951 7.66009 3.17592 7.5049L0.252588 5.38098C-0.225013 5.03398 0.0204428 4.27855 0.61079 4.27855H4.22423C4.48824 4.27855 4.72222 4.10855 4.80381 3.85746L5.92042 0.420879Z" fill="#FAB73B"/>
</svg>
