<svg width="19" height="19" viewBox="0 0 19 19" fill="none" xmlns="http://www.w3.org/2000/svg">
<path d="M19.0002 8.92274C18.4753 13.3316 17.9504 18.4753 9.4476 18.8952C5.03872 17.8455 0 13.5416 0 9.4476C0 5.35364 4.22984 0 9.4476 0C15.0112 1.5746 19.0002 3.70497 19.0002 8.92274Z" fill="#F6E8EB"/>
<path d="M5.87663 1.06376C5.56171 1.06376 2.41251 3.16322 0.418016 8.09697V8.41185C0.907891 7.99196 2.24455 6.6273 3.67219 4.52783C5.45674 1.9035 6.2472 1.96065 7.66118 1.58858C9.65567 1.06376 10.0756 1.58858 11.6502 2.53334C14.2853 4.11441 13.4347 2.95323 17.1088 7.15217C20.7828 11.3511 15.7441 3.26815 15.2193 2.95323C14.6944 2.63831 10.8104 0.748835 9.65567 0.643862C8.50096 0.538889 6.19155 1.06376 5.87663 1.06376Z" fill="white" fill-opacity="0.75"/>
<path d="M10.2386 2.55281C10.0697 2.4553 7.73069 2.60615 5.13335 4.63459L5.03585 4.80347C5.42859 4.72996 6.568 4.41196 7.98373 3.72805C9.75339 2.87316 10.1596 3.14857 11.0332 3.38685C12.2653 3.72295 12.328 4.13443 12.88 5.12867C13.8036 6.79255 13.707 5.90643 14.3773 9.29599C15.0476 12.6855 14.8481 6.79041 14.6641 6.45899C14.4801 6.12758 12.9821 3.9116 12.3954 3.49776C11.8086 3.08392 10.4075 2.65032 10.2386 2.55281Z" fill="white" fill-opacity="0.75"/>
<path d="M10.1212 4.71673C9.98347 4.63722 8.07632 4.76022 5.95853 6.41414L5.87904 6.55184C6.19926 6.4919 7.1283 6.23262 8.28264 5.67498C9.72556 4.97793 10.0568 5.20249 10.769 5.39677C11.7737 5.67082 11.8248 6.00633 12.2749 6.817C13.028 8.17366 12.9492 7.45115 13.4957 10.2149C14.0423 12.9786 13.8796 8.17192 13.7296 7.90169C13.5796 7.63147 12.3582 5.82463 11.8797 5.4872C11.4013 5.14977 10.2589 4.79624 10.1212 4.71673Z" fill="white" fill-opacity="0.75"/>
<path d="M1.15098 9.61029C1.06903 9.34789 1.99883 6.17754 5.59072 3.23175L5.85308 3.14981C5.6307 3.66725 4.84148 5.13612 3.46367 6.87202C1.74141 9.04189 1.99474 9.68566 2.05268 10.9606C2.13442 12.7591 2.68099 12.9724 3.87795 14.0385C5.88109 15.8227 4.69222 15.4162 9.147 17.3848C13.6018 19.3534 5.55561 17.2585 5.15662 16.9031C4.75763 16.5477 2.17252 13.8032 1.78455 12.8684C1.39659 11.9335 1.23294 9.87269 1.15098 9.61029Z" fill="white" fill-opacity="0.75"/>
<path d="M6.12233 13.2956C5.95848 13.1973 4.97564 11.1217 5.47856 7.93202L5.57688 7.76819C5.70063 8.13962 5.96993 9.26698 6.05711 10.805C6.16609 12.7276 6.59518 12.9447 7.21465 13.5798C8.08843 14.4757 8.47077 14.3337 9.58498 14.3339C11.4496 14.3341 10.6445 14.6727 13.8672 13.6354C17.0898 12.598 11.9444 15.23 11.573 15.2299C11.2016 15.2299 8.59085 15.0001 7.95732 14.6941C7.32378 14.3882 6.28617 13.394 6.12233 13.2956Z" fill="white" fill-opacity="0.75"/>
<path d="M11.6132 7.0766C11.7044 7.10348 12.437 7.98003 12.5934 9.57862L12.5665 9.66978C12.4605 9.50641 12.19 8.99726 11.9558 8.26761C11.6631 7.35555 11.4294 7.30464 11.0518 7.07627C10.5192 6.75412 10.3528 6.87024 9.81631 7.00939C8.91849 7.24227 9.26383 6.97868 7.84183 7.8808C6.41983 8.78293 8.56835 6.87278 8.74718 6.82639C8.92601 6.78001 10.2117 6.56442 10.555 6.63256C10.8982 6.7007 11.5221 7.04973 11.6132 7.0766Z" fill="white" fill-opacity="0.75"/>
<path d="M3.69993 7.36603C3.71153 7.14789 5.28178 5.04376 8.7728 3.84386L8.99092 3.85545C8.68202 4.17933 7.68751 5.05498 6.18065 5.96659C4.29708 7.1061 4.30756 7.65575 3.99776 8.62151C3.56078 9.98376 3.90886 10.2939 4.50531 11.4194C5.50348 13.303 4.73046 12.6711 7.50375 15.3707C10.277 18.0703 4.86356 14.2824 4.66475 13.9072C4.46593 13.532 3.30012 10.772 3.26992 9.9683C3.23972 9.16457 3.68834 7.58418 3.69993 7.36603Z" fill="white" fill-opacity="0.75"/>
<path d="M6.51993 7.82383C6.52651 7.70003 7.41767 6.50587 9.39894 5.82489L9.52272 5.83147C9.34742 6.01528 8.783 6.51224 7.92781 7.0296C6.85883 7.67631 6.86477 7.98826 6.68895 8.53635C6.44095 9.30947 6.6385 9.48551 6.977 10.1243C7.54349 11.1932 7.10478 10.8346 8.67871 12.3667C10.2526 13.8988 7.18032 11.7491 7.06749 11.5361C6.95465 11.3232 6.29302 9.75684 6.27588 9.3007C6.25874 8.84456 6.51334 7.94764 6.51993 7.82383Z" fill="white" fill-opacity="0.75"/>
<path d="M15.107 16.5752C14.9841 16.7714 12.4466 17.914 8.59396 17.2307L8.39777 17.1078C8.85063 16.9664 10.2227 16.6663 12.0881 16.5964C14.4199 16.509 14.6928 15.9942 15.4766 15.2584C16.5822 14.2206 16.4192 13.7541 16.4452 12.4042C16.4888 10.1452 16.8802 11.1284 15.6983 7.20011C14.5164 3.27177 17.5856 9.56659 17.5769 10.0166C17.5682 10.4665 17.2292 13.6241 16.8439 14.3845C16.4585 15.145 15.2299 16.379 15.107 16.5752Z" fill="white" fill-opacity="0.75"/>
<path d="M12.1455 13.4097C12.0807 13.5132 10.7424 14.1158 8.71035 13.7554L8.60687 13.6906C8.84572 13.616 9.56939 13.4577 10.5533 13.4209C11.7831 13.3748 11.9271 13.1032 12.3405 12.7152C12.9236 12.1678 12.8376 11.9217 12.8513 11.2098C12.8743 10.0183 13.0808 10.5369 12.4574 8.46494C11.834 6.39301 13.4528 9.71311 13.4482 9.95043C13.4436 10.1878 13.2649 11.8532 13.0616 12.2543C12.8584 12.6553 12.2104 13.3062 12.1455 13.4097Z" fill="white" fill-opacity="0.75"/>
<path d="M14.4461 16.0288C14.3521 16.179 12.0888 16.852 8.38513 15.8559L8.18679 15.7316C8.59763 15.6637 9.85656 15.565 11.6055 15.7128C13.7917 15.8976 13.9919 15.4982 14.6487 14.9708C15.5751 14.2269 15.37 13.8196 15.2453 12.6959C15.0366 10.8155 15.5139 11.6793 13.9666 8.27026C12.4193 4.86123 16.0055 10.4538 16.047 10.8284C16.0886 11.2029 16.1185 13.8006 15.8396 14.3926C15.5608 14.9847 14.5402 15.8787 14.4461 16.0288Z" fill="white" fill-opacity="0.75"/>
</svg>
