<svg width="22" height="22" viewBox="0 0 22 22" fill="none" xmlns="http://www.w3.org/2000/svg">
<path d="M11.5 5.65967C14.4531 5.65967 16.8906 8.09717 16.8906 11.0503C16.8906 14.0503 14.4531 16.4409 11.5 16.4409C8.5 16.4409 6.10938 14.0503 6.10938 11.0503C6.10938 8.09717 8.5 5.65967 11.5 5.65967ZM11.5 14.5659C13.4219 14.5659 14.9688 13.019 14.9688 11.0503C14.9688 9.12842 13.4219 7.58154 11.5 7.58154C9.53125 7.58154 7.98438 9.12842 7.98438 11.0503C7.98438 13.019 9.57812 14.5659 11.5 14.5659ZM18.3438 5.47217C18.3438 6.17529 17.7812 6.73779 17.0781 6.73779C16.375 6.73779 15.8125 6.17529 15.8125 5.47217C15.8125 4.76904 16.375 4.20654 17.0781 4.20654C17.7812 4.20654 18.3438 4.76904 18.3438 5.47217ZM21.9062 6.73779C22 8.47217 22 13.6753 21.9062 15.4097C21.8125 17.0972 21.4375 18.5503 20.2188 19.8159C19 21.0347 17.5 21.4097 15.8125 21.5034C14.0781 21.5972 8.875 21.5972 7.14062 21.5034C5.45312 21.4097 4 21.0347 2.73438 19.8159C1.51562 18.5503 1.14062 17.0972 1.04688 15.4097C0.953125 13.6753 0.953125 8.47217 1.04688 6.73779C1.14062 5.05029 1.51562 3.55029 2.73438 2.33154C4 1.11279 5.45312 0.737793 7.14062 0.644043C8.875 0.550293 14.0781 0.550293 15.8125 0.644043C17.5 0.737793 19 1.11279 20.2188 2.33154C21.4375 3.55029 21.8125 5.05029 21.9062 6.73779ZM19.6562 17.2378C20.2188 15.8784 20.0781 12.5972 20.0781 11.0503C20.0781 9.55029 20.2188 6.26904 19.6562 4.86279C19.2812 3.97217 18.5781 3.22217 17.6875 2.89404C16.2812 2.33154 13 2.47217 11.5 2.47217C9.95312 2.47217 6.67188 2.33154 5.3125 2.89404C4.375 3.26904 3.67188 3.97217 3.29688 4.86279C2.73438 6.26904 2.875 9.55029 2.875 11.0503C2.875 12.5972 2.73438 15.8784 3.29688 17.2378C3.67188 18.1753 4.375 18.8784 5.3125 19.2534C6.67188 19.8159 9.95312 19.6753 11.5 19.6753C13 19.6753 16.2812 19.8159 17.6875 19.2534C18.5781 18.8784 19.3281 18.1753 19.6562 17.2378Z" fill="white"/>
</svg>
