<svg width="21" height="22" viewBox="0 0 21 22" fill="none" xmlns="http://www.w3.org/2000/svg">
<path d="M19.5 0.550293C20.2969 0.550293 21 1.25342 21 2.09717V20.0503C21 20.894 20.2969 21.5503 19.5 21.5503H1.45312C0.65625 21.5503 0 20.894 0 20.0503V2.09717C0 1.25342 0.65625 0.550293 1.45312 0.550293H19.5ZM6.32812 18.5503V8.56592H3.23438V18.5503H6.32812ZM4.78125 7.15967C5.76562 7.15967 6.5625 6.36279 6.5625 5.37842C6.5625 4.39404 5.76562 3.55029 4.78125 3.55029C3.75 3.55029 2.95312 4.39404 2.95312 5.37842C2.95312 6.36279 3.75 7.15967 4.78125 7.15967ZM18 18.5503V13.0659C18 10.394 17.3906 8.28467 14.25 8.28467C12.75 8.28467 11.7188 9.12842 11.2969 9.92529H11.25V8.56592H8.29688V18.5503H11.3906V13.6284C11.3906 12.3159 11.625 11.0503 13.2656 11.0503C14.8594 11.0503 14.8594 12.5503 14.8594 13.6753V18.5503H18Z" fill="white"/>
</svg>
