<svg width="24" height="20" viewBox="0 0 24 20" fill="none" xmlns="http://www.w3.org/2000/svg">
<path d="M21.5156 5.17529C21.5156 5.40967 21.5156 5.59717 21.5156 5.83154C21.5156 12.3472 16.5938 19.8003 7.54688 19.8003C4.73438 19.8003 2.15625 19.0034 0 17.5972C0.375 17.644 0.75 17.6909 1.17188 17.6909C3.46875 17.6909 5.57812 16.894 7.26562 15.5815C5.10938 15.5347 3.28125 14.1284 2.67188 12.1597C3 12.2065 3.28125 12.2534 3.60938 12.2534C4.03125 12.2534 4.5 12.1597 4.875 12.0659C2.625 11.5972 0.9375 9.62842 0.9375 7.23779V7.19092C1.59375 7.56592 2.39062 7.75342 3.1875 7.80029C1.82812 6.90967 0.984375 5.40967 0.984375 3.72217C0.984375 2.78467 1.21875 1.94092 1.64062 1.23779C4.07812 4.19092 7.73438 6.15967 11.8125 6.39404C11.7188 6.01904 11.6719 5.64404 11.6719 5.26904C11.6719 2.55029 13.875 0.347168 16.5938 0.347168C18 0.347168 19.2656 0.909668 20.2031 1.89404C21.2812 1.65967 22.3594 1.23779 23.2969 0.675293C22.9219 1.84717 22.1719 2.78467 21.1406 3.39404C22.125 3.30029 23.1094 3.01904 23.9531 2.64404C23.2969 3.62842 22.4531 4.47217 21.5156 5.17529Z" fill="white"/>
</svg>
