<?xml version="1.0" encoding="UTF-8"?>
<!DOCTYPE svg PUBLIC "-//W3C//DTD SVG 1.1//EN" "http://www.w3.org/Graphics/SVG/1.1/DTD/svg11.dtd">
<svg xmlns="http://www.w3.org/2000/svg" version="1.1" width="512px" height="513px" style="shape-rendering:geometricPrecision; text-rendering:geometricPrecision; image-rendering:optimizeQuality; fill-rule:evenodd; clip-rule:evenodd" xmlns:xlink="http://www.w3.org/1999/xlink">
<g><path style="opacity:0.998" fill="#01d566" d="M 281.5,100.5 C 287.389,101.277 292.722,103.444 297.5,107C 305.246,116.748 314.246,125.081 324.5,132C 336.098,133.614 347.765,134.614 359.5,135C 370.914,137.415 378.081,144.248 381,155.5C 382.667,164.167 384.333,172.833 386,181.5C 387.922,187.43 391.422,192.263 396.5,196C 404.444,200.889 411.944,206.389 419,212.5C 425.412,220.409 427.746,229.409 426,239.5C 422.667,248.167 419.333,256.833 416,265.5C 414,271.5 414,277.5 416,283.5C 420.81,293.608 424.31,304.108 426.5,315C 426.438,321.421 424.605,327.254 421,332.5C 410.667,340.833 400.333,349.167 390,357.5C 388.667,360.167 387.333,362.833 386,365.5C 384.127,375.199 382.127,384.866 380,394.5C 375.806,404.031 368.639,409.864 358.5,412C 348.476,412.334 338.476,413.001 328.5,414C 324.462,414.899 320.795,416.566 317.5,419C 309.47,427.364 301.137,435.364 292.5,443C 285.456,446.431 278.123,447.264 270.5,445.5C 274.982,444.674 279.649,444.174 284.5,444C 275.756,440.127 267.423,435.46 259.5,430C 251.68,425.397 243.68,424.564 235.5,427.5C 226.054,428.528 216.72,430.195 207.5,432.5C 199.065,431.865 192.231,428.198 187,421.5C 182.078,412.657 177.412,403.657 173,394.5C 170.5,392 168,389.5 165.5,387C 154.089,382.863 142.755,378.53 131.5,374C 125.773,369.372 121.94,363.539 120,356.5C 120.664,342.849 120.998,329.183 121,315.5C 120.194,312.554 118.861,309.888 117,307.5C 110.618,300.12 104.618,292.453 99,284.5C 95.1411,274.811 95.8077,265.478 101,256.5C 108.061,248.706 114.395,240.372 120,231.5C 121.935,218.498 121.769,205.498 119.5,192.5C 120.436,181.462 125.769,173.296 135.5,168C 147.009,164.833 158.009,160.5 168.5,155C 170.788,152.257 172.955,149.423 175,146.5C 179.078,138.009 183.412,129.676 188,121.5C 191.79,117.862 195.957,114.862 200.5,112.5C 211.005,114.768 221.505,117.101 232,119.5C 235.171,118.778 238.338,118.111 241.5,117.5C 247.072,118.01 252.405,117.177 257.5,115C 265.691,110.272 273.691,105.438 281.5,100.5 Z"/></g>
<g><path style="opacity:0.983" fill="#03ae53" d="M 281.5,100.5 C 273.691,105.438 265.691,110.272 257.5,115C 252.405,117.177 247.072,118.01 241.5,117.5C 249.77,112.693 258.104,107.86 266.5,103C 271.295,100.967 276.295,100.134 281.5,100.5 Z"/></g>
<g><path style="opacity:0.995" fill="#00b557" d="M 200.5,112.5 C 195.957,114.862 191.79,117.862 188,121.5C 183.412,129.676 179.078,138.009 175,146.5C 172.955,149.423 170.788,152.257 168.5,155C 158.009,160.5 147.009,164.833 135.5,168C 125.769,173.296 120.436,181.462 119.5,192.5C 121.769,205.498 121.935,218.498 120,231.5C 114.395,240.372 108.061,248.706 101,256.5C 95.8077,265.478 95.1411,274.811 99,284.5C 104.618,292.453 110.618,300.12 117,307.5C 118.861,309.888 120.194,312.554 121,315.5C 120.998,329.183 120.664,342.849 120,356.5C 121.94,363.539 125.773,369.372 131.5,374C 142.755,378.53 154.089,382.863 165.5,387C 168,389.5 170.5,392 173,394.5C 177.412,403.657 182.078,412.657 187,421.5C 192.231,428.198 199.065,431.865 207.5,432.5C 193.539,436.792 182.039,433.125 173,421.5C 169,413.5 165,405.5 161,397.5C 158.117,392.95 154.284,389.45 149.5,387C 141.5,384.333 133.5,381.667 125.5,379C 113.739,373.893 107.405,364.893 106.5,352C 107.5,343 108.5,334 109.5,325C 109.005,319.852 107.505,315.018 105,310.5C 97.6018,302.035 90.9351,293.035 85,283.5C 82.3693,274.395 83.3693,265.728 88,257.5C 93.6667,250.5 99.3333,243.5 105,236.5C 107.505,231.982 109.005,227.148 109.5,222C 108.5,213 107.5,204 106.5,195C 107.021,183.278 112.354,174.612 122.5,169C 134.009,165.833 145.009,161.5 155.5,156C 162.471,146.567 168.304,136.401 173,125.5C 179.507,115.712 188.674,111.379 200.5,112.5 Z"/></g>
<g><path style="opacity:1" fill="#fdfefe" d="M 329.5,209.5 C 345.777,206.799 355.444,213.465 358.5,229.5C 358.344,235.132 356.51,240.132 353,244.5C 317.5,273.333 282,302.167 246.5,331C 242.328,334.499 237.662,337.166 232.5,339C 226.405,340.266 220.738,339.266 215.5,336C 195.962,314.798 176.796,293.298 158,271.5C 152.452,262.709 152.119,253.709 157,244.5C 163.148,237.007 170.982,234.507 180.5,237C 184.51,238.343 188.01,240.509 191,243.5C 204.009,258.674 217.176,273.674 230.5,288.5C 263.255,261.733 296.255,235.399 329.5,209.5 Z"/></g>
<g><path style="opacity:1" fill="#00b959" d="M 270.5,445.5 C 262.798,441.961 255.465,437.795 248.5,433C 244.259,430.651 239.925,428.818 235.5,427.5C 243.68,424.564 251.68,425.397 259.5,430C 267.423,435.46 275.756,440.127 284.5,444C 279.649,444.174 274.982,444.674 270.5,445.5 Z"/></g>
</svg>
