<svg width="27" height="19" viewBox="0 0 27 19" fill="none" xmlns="http://www.w3.org/2000/svg">
<path d="M25.7344 2.90967C26.2969 4.87842 26.2969 9.09717 26.2969 9.09717C26.2969 9.09717 26.2969 13.269 25.7344 15.2847C25.4531 16.4097 24.5625 17.2534 23.4844 17.5347C21.4688 18.0503 13.5 18.0503 13.5 18.0503C13.5 18.0503 5.48438 18.0503 3.46875 17.5347C2.39062 17.2534 1.5 16.4097 1.21875 15.2847C0.65625 13.269 0.65625 9.09717 0.65625 9.09717C0.65625 9.09717 0.65625 4.87842 1.21875 2.90967C1.5 1.78467 2.39062 0.894043 3.46875 0.612793C5.48438 0.050293 13.5 0.050293 13.5 0.050293C13.5 0.050293 21.4688 0.050293 23.4844 0.612793C24.5625 0.894043 25.4531 1.78467 25.7344 2.90967ZM10.875 12.894L17.5312 9.09717L10.875 5.30029V12.894Z" fill="white"/>
</svg>
